<?xml version="1.0" standalone="no"?><!DOCTYPE svg PUBLIC "-//W3C//DTD SVG 1.1//EN" "http://www.w3.org/Graphics/SVG/1.1/DTD/svg11.dtd"><svg t="1677070423712" class="icon" viewBox="0 0 1024 1024" version="1.1" xmlns="http://www.w3.org/2000/svg" p-id="1084" xmlns:xlink="http://www.w3.org/1999/xlink" width="200" height="200"><path d="M512 188.509091c-178.375481 0-323.490909 145.115429-323.490909 323.490909A323.743584 323.743584 0 0 0 341.776623 786.950649v133.492364h340.446754V786.950649c94.92613-58.846753 153.267532-162.909091 153.267532-274.950649 0-178.375481-145.128727-323.490909-323.490909-323.490909zM646.649351 752.706494l-12.141715 6.808935v113.384727H389.479065v-113.384727l-12.128416-6.808935a276.386909 276.386909 0 0 1-140.966233-240.706494c0-152.110545 123.677922-275.788468 275.788467-275.788468 152.097247 0 275.775169 123.677922 275.775169 275.788468a276.89226 276.89226 0 0 1-141.298701 240.706494zM341.776623 1009.038961a13.697662 13.697662 0 0 0 13.631169 13.631169h313.184416a13.697662 13.697662 0 0 0 13.631169-13.631169v-34.084571H341.776623v34.084571zM512 144.290909c13.125818 0 23.778078-10.638961 23.778078-23.764779V25.267532a23.764779 23.764779 0 1 0-47.542857 0v95.245299c0 13.139117 10.638961 23.778078 23.764779 23.778078z m-293.728416 107.719481c4.654545 4.654545 10.798545 6.981818 16.782961 6.981818a23.884468 23.884468 0 0 0 16.782961-40.733922l-67.318025-67.318026c-9.309091-9.309091-24.443013-9.309091-33.738806 0-9.309091 9.309091-9.309091 24.443013 0 33.738805l67.490909 67.331325z m-97.745454 236.211532H25.267532a23.764779 23.764779 0 1 0 0 47.542857h95.245299a23.764779 23.764779 0 1 0 0-47.542857z m97.745454 283.767688l-67.331324 67.331325a23.884468 23.884468 0 0 0 16.796259 40.720623c5.984416 0 12.128416-2.327273 16.782962-6.981818l67.331324-67.331324c9.309091-9.309091 9.309091-24.429714 0-33.738806a23.671688 23.671688 0 0 0-33.579221 0z m587.456832 0c-9.309091-9.309091-24.429714-9.309091-33.738806 0s-9.309091 24.443013 0 33.752104l67.331325 67.318026c4.654545 4.654545 10.798545 6.981818 16.782961 6.981818a23.884468 23.884468 0 0 0 16.79626-40.733922l-67.158442-67.318026z m193.163636-283.754389H903.646753a23.764779 23.764779 0 1 0 0 47.542857h95.245299a23.764779 23.764779 0 1 0 0-47.542857z m-210.119481-229.243013a23.538701 23.538701 0 0 0 16.79626-6.981818l67.331325-67.331325c9.309091-9.309091 9.309091-24.429714 0-33.738805s-24.443013-9.309091-33.752104 0l-67.331325 67.331324c-9.309091 9.309091-9.309091 24.429714 0 33.738806 4.827429 4.654545 10.971429 6.981818 16.969143 6.981818z" fill="#d81e06" p-id="1085"></path></svg>