<?xml version="1.0" standalone="no"?><!DOCTYPE svg PUBLIC "-//W3C//DTD SVG 1.1//EN" "http://www.w3.org/Graphics/SVG/1.1/DTD/svg11.dtd"><svg t="1664884039389" class="icon" viewBox="0 0 1024 1024" version="1.1" xmlns="http://www.w3.org/2000/svg" p-id="10718" xmlns:xlink="http://www.w3.org/1999/xlink" width="200" height="200"><path d="M1024 432v160c0 8.8-7.2 16-16 16H624c-8.8 0-16 7.2-16 16v384c0 8.8-7.2 16-16 16H432c-8.8 0-16-7.2-16-16V624c0-8.8-7.2-16-16-16H16c-8.8 0-16-7.2-16-16V432c0-8.8 7.2-16 16-16h384c8.8 0 16-7.2 16-16V16c0-8.8 7.2-16 16-16h160c8.8 0 16 7.2 16 16v384c0 8.8 7.2 16 16 16h384c8.8 0 16 7.2 16 16z" p-id="10719" fill="#bfbfbf"></path></svg>