<?xml version="1.0" standalone="no"?><!DOCTYPE svg PUBLIC "-//W3C//DTD SVG 1.1//EN" "http://www.w3.org/Graphics/SVG/1.1/DTD/svg11.dtd"><svg t="1664014893235" class="icon" viewBox="0 0 1024 1024" version="1.1" xmlns="http://www.w3.org/2000/svg" p-id="4029" xmlns:xlink="http://www.w3.org/1999/xlink" width="200" height="200"><path d="M512.03 847.85c-246.92 0-447.81-145.53-447.81-324.41s200.9-324.41 447.81-324.41c246.86 0 447.76 145.53 447.76 324.41s-200.9 324.41-447.76 324.41z m0-557c-192.99 0-356 106.52-356 232.59s163.01 232.59 356 232.59c192.94 0 355.94-106.52 355.94-232.59S704.96 290.85 512.03 290.85z" fill="#ffffff" p-id="4030"></path><path d="M512.01 523.43m-142.74 0a142.74 142.74 0 1 0 285.48 0 142.74 142.74 0 1 0-285.48 0Z" fill="#ffffff" p-id="4031"></path></svg>